<mxfile host="app.diagrams.net" modified="2023-08-21T18:00:24.627Z" agent="Mozilla/5.0 (Windows NT 10.0; Win64; x64) AppleWebKit/537.36 (KHTML, like Gecko) Chrome/116.0.0.0 Safari/537.36" etag="H2CsUCAvtOOLAUqmyYNw" version="21.6.8" type="device">
  <diagram name="Страница — 1" id="khInIVxKFC5LSLn_1Ov2">
    <mxGraphModel dx="1050" dy="534" grid="1" gridSize="10" guides="1" tooltips="1" connect="1" arrows="1" fold="1" page="1" pageScale="1" pageWidth="827" pageHeight="1169" math="0" shadow="0">
      <root>
        <mxCell id="0" />
        <mxCell id="1" parent="0" />
        <mxCell id="8qn8vedq_QUMaq4ENaN0-1" value="&lt;font style=&quot;font-size: 18px;&quot;&gt;id&lt;br&gt;&lt;br&gt;name&lt;br&gt;&lt;br&gt;surname&lt;br&gt;&lt;br&gt;login&lt;br&gt;&lt;br&gt;password&lt;br&gt;&lt;br&gt;isAdmin&lt;br&gt;&lt;br&gt;numberClass&lt;br&gt;&lt;/font&gt;" style="whiteSpace=wrap;html=1;" vertex="1" parent="1">
          <mxGeometry x="40" y="120" width="120" height="340" as="geometry" />
        </mxCell>
        <mxCell id="8qn8vedq_QUMaq4ENaN0-2" value="&lt;font style=&quot;font-size: 18px;&quot;&gt;user&lt;/font&gt;" style="text;html=1;align=center;verticalAlign=middle;resizable=0;points=[];autosize=1;strokeColor=none;fillColor=none;" vertex="1" parent="1">
          <mxGeometry x="70" y="85" width="60" height="40" as="geometry" />
        </mxCell>
        <mxCell id="8qn8vedq_QUMaq4ENaN0-5" value="&lt;font size=&quot;3&quot;&gt;&lt;br&gt;id&lt;br&gt;&lt;br&gt;time&lt;br&gt;&lt;br&gt;date&lt;br&gt;&lt;/font&gt;" style="rounded=0;whiteSpace=wrap;html=1;" vertex="1" parent="1">
          <mxGeometry x="230" y="280" width="120" height="120" as="geometry" />
        </mxCell>
        <mxCell id="8qn8vedq_QUMaq4ENaN0-6" value="&lt;font style=&quot;font-size: 18px;&quot;&gt;day&lt;/font&gt;" style="text;html=1;align=center;verticalAlign=middle;resizable=0;points=[];autosize=1;strokeColor=none;fillColor=none;" vertex="1" parent="1">
          <mxGeometry x="265" y="230" width="50" height="40" as="geometry" />
        </mxCell>
        <mxCell id="8qn8vedq_QUMaq4ENaN0-7" value="&lt;font size=&quot;3&quot;&gt;7-8&lt;br&gt;...&lt;br&gt;19-20&lt;br&gt;&lt;/font&gt;" style="rounded=0;whiteSpace=wrap;html=1;" vertex="1" parent="1">
          <mxGeometry x="414" y="280" width="120" height="120" as="geometry" />
        </mxCell>
        <mxCell id="8qn8vedq_QUMaq4ENaN0-8" value="&lt;font style=&quot;font-size: 18px;&quot;&gt;time&lt;/font&gt;" style="text;html=1;align=center;verticalAlign=middle;resizable=0;points=[];autosize=1;strokeColor=none;fillColor=none;" vertex="1" parent="1">
          <mxGeometry x="444" y="230" width="60" height="40" as="geometry" />
        </mxCell>
        <mxCell id="8qn8vedq_QUMaq4ENaN0-9" value="" style="endArrow=classic;startArrow=classic;html=1;rounded=0;exitX=1;exitY=0.5;exitDx=0;exitDy=0;" edge="1" parent="1" source="8qn8vedq_QUMaq4ENaN0-5">
          <mxGeometry width="50" height="50" relative="1" as="geometry">
            <mxPoint x="370" y="310" as="sourcePoint" />
            <mxPoint x="410" y="340" as="targetPoint" />
          </mxGeometry>
        </mxCell>
        <mxCell id="8qn8vedq_QUMaq4ENaN0-10" value="" style="endArrow=classic;startArrow=classic;html=1;rounded=0;exitX=1;exitY=0.5;exitDx=0;exitDy=0;" edge="1" parent="1" source="8qn8vedq_QUMaq4ENaN0-11">
          <mxGeometry width="50" height="50" relative="1" as="geometry">
            <mxPoint x="680" y="359" as="sourcePoint" />
            <mxPoint x="170" y="159" as="targetPoint" />
            <Array as="points">
              <mxPoint x="700" y="340" />
              <mxPoint x="720" y="340" />
              <mxPoint x="720" y="159" />
              <mxPoint x="600" y="159" />
            </Array>
          </mxGeometry>
        </mxCell>
        <mxCell id="8qn8vedq_QUMaq4ENaN0-11" value="&lt;font style=&quot;font-size: 18px;&quot;&gt;user_id&lt;br&gt;&lt;br&gt;status&lt;/font&gt;" style="rounded=0;whiteSpace=wrap;html=1;" vertex="1" parent="1">
          <mxGeometry x="560" y="290" width="120" height="100" as="geometry" />
        </mxCell>
        <mxCell id="8qn8vedq_QUMaq4ENaN0-12" value="" style="endArrow=classic;startArrow=classic;html=1;rounded=0;entryX=0;entryY=0.5;entryDx=0;entryDy=0;exitX=1;exitY=0.5;exitDx=0;exitDy=0;" edge="1" parent="1" source="8qn8vedq_QUMaq4ENaN0-7" target="8qn8vedq_QUMaq4ENaN0-11">
          <mxGeometry width="50" height="50" relative="1" as="geometry">
            <mxPoint x="390" y="390" as="sourcePoint" />
            <mxPoint x="440" y="340" as="targetPoint" />
          </mxGeometry>
        </mxCell>
        <mxCell id="8qn8vedq_QUMaq4ENaN0-13" value="&lt;font style=&quot;font-size: 18px;&quot;&gt;entity&lt;/font&gt;" style="text;html=1;align=center;verticalAlign=middle;resizable=0;points=[];autosize=1;strokeColor=none;fillColor=none;" vertex="1" parent="1">
          <mxGeometry x="585" y="233" width="70" height="40" as="geometry" />
        </mxCell>
        <mxCell id="8qn8vedq_QUMaq4ENaN0-14" value="&lt;font style=&quot;font-size: 18px;&quot;&gt;statuses&lt;/font&gt;" style="text;html=1;align=center;verticalAlign=middle;resizable=0;points=[];autosize=1;strokeColor=none;fillColor=none;" vertex="1" parent="1">
          <mxGeometry x="620" y="410" width="90" height="40" as="geometry" />
        </mxCell>
        <mxCell id="8qn8vedq_QUMaq4ENaN0-17" value="&lt;font style=&quot;font-size: 18px;&quot;&gt;scheduled&lt;br&gt;&lt;br&gt;complited&lt;br&gt;&lt;br&gt;canceled&lt;/font&gt;" style="rounded=0;whiteSpace=wrap;html=1;" vertex="1" parent="1">
          <mxGeometry x="560" y="450" width="120" height="120" as="geometry" />
        </mxCell>
        <mxCell id="8qn8vedq_QUMaq4ENaN0-18" value="" style="endArrow=classic;startArrow=classic;html=1;rounded=0;entryX=0.5;entryY=1;entryDx=0;entryDy=0;exitX=0.5;exitY=0;exitDx=0;exitDy=0;" edge="1" parent="1" source="8qn8vedq_QUMaq4ENaN0-17" target="8qn8vedq_QUMaq4ENaN0-11">
          <mxGeometry width="50" height="50" relative="1" as="geometry">
            <mxPoint x="390" y="370" as="sourcePoint" />
            <mxPoint x="440" y="320" as="targetPoint" />
          </mxGeometry>
        </mxCell>
      </root>
    </mxGraphModel>
  </diagram>
</mxfile>
